# Blender v2.79 (sub 0) OBJ File: 'Zelda Hylian Shield.obj'
# www.blender.org
mtllib diamondblock.mtl
v -1.199280 0.022922 0.827928
v -1.199280 2.022922 0.827928
v -1.199280 0.022922 -1.172072
v -1.199280 2.022922 -1.172072
v 0.800720 0.022922 0.827928
v 0.800720 2.022922 0.827928
v 0.800720 0.022922 -1.172072
v 0.800720 2.022922 -1.172072
vt 0.000000 0.000000
vt 0.000000 0.000000
vt 0.000000 0.000000
vt 0.000100 0.000100
vt 0.997191 0.999900
vt 0.000100 0.999900
vt 0.997191 0.999900
vt 0.000100 0.000100
vt 0.997191 0.000100
vt 0.997191 0.999900
vt 0.000100 0.000100
vt 0.997191 0.000100
vt 0.000000 0.000000
vt 0.000100 0.999900
vt 0.997191 0.000100
vt 0.000000 0.000000
vt 0.997191 0.000100
vt 0.000100 0.999900
vt 0.000100 0.999900
vt 0.000000 0.000000
vt 0.000100 0.000100
vn -1.0000 0.0000 0.0000
vn 0.0000 0.0000 -1.0000
vn 1.0000 0.0000 0.0000
vn 0.0000 0.0000 1.0000
vn 0.0000 -1.0000 0.0000
vn 0.0000 1.0000 0.0000
usemtl Material.001
s off
f 2/1/1 3/2/1 1/3/1
usemtl Material.001_diamond.png
f 4/4/2 7/5/2 3/6/2
f 8/7/3 5/8/3 7/9/3
f 6/10/4 1/11/4 5/12/4
usemtl Material.001
f 7/13/5 1/3/5 3/2/5
usemtl Material.001_diamond.png
f 4/14/6 6/15/6 8/7/6
usemtl Material.001
f 2/1/1 4/16/1 3/2/1
usemtl Material.001_diamond.png
f 4/4/2 8/17/2 7/5/2
f 8/7/3 6/18/3 5/8/3
f 6/10/4 2/19/4 1/11/4
usemtl Material.001
f 7/13/5 5/20/5 1/3/5
usemtl Material.001_diamond.png
f 4/14/6 2/21/6 6/15/6
